<?xml version="1.0" encoding="utf-8" standalone="no"?>
<!DOCTYPE svg PUBLIC "-//W3C//DTD SVG 1.1//EN"
  "http://www.w3.org/Graphics/SVG/1.1/DTD/svg11.dtd">
<svg height="248.518125pt" version="1.1" viewBox="0 0 251.565 248.518125" width="251.565pt" xmlns="http://www.w3.org/2000/svg" xmlns:xlink="http://www.w3.org/1999/xlink">
 <metadata>
  <rdf:RDF xmlns:cc="http://creativecommons.org/ns#" xmlns:dc="http://purl.org/dc/elements/1.1/" xmlns:rdf="http://www.w3.org/1999/02/22-rdf-syntax-ns#">
   <cc:Work>
    <dc:type rdf:resource="http://purl.org/dc/dcmitype/StillImage"/>
    <dc:date>2021-08-09T14:41:33.266970</dc:date>
    <dc:format>image/svg+xml</dc:format>
    <dc:creator>
     <cc:Agent>
      <dc:title>Matplotlib v3.4.2, https://matplotlib.org/</dc:title>
     </cc:Agent>
    </dc:creator>
   </cc:Work>
  </rdf:RDF>
 </metadata>
 <defs>
  <style type="text/css">*{stroke-linecap:butt;stroke-linejoin:round;}</style>
 </defs>
 <g id="figure_1">
  <g id="patch_1">
   <path d="M 0 248.518125 
L 251.565 248.518125 
L 251.565 0 
L 0 0 
z
" style="fill:none;"/>
  </g>
  <g id="axes_1">
   <g id="patch_2">
    <path d="M 26.925 224.64 
L 244.365 224.64 
L 244.365 7.2 
L 26.925 7.2 
z
" style="fill:#ffffff;"/>
   </g>
   <g id="matplotlib.axis_1">
    <g id="xtick_1">
     <g id="line2d_1">
      <defs>
       <path d="M 0 0 
L 0 3.5 
" id="m7c598d3ae0" style="stroke:#000000;stroke-width:0.8;"/>
      </defs>
      <g>
       <use style="stroke:#000000;stroke-width:0.8;" x="36.808636" xlink:href="#m7c598d3ae0" y="224.64"/>
      </g>
     </g>
     <g id="text_1">
      <!-- 0 -->
      <g transform="translate(33.627386 239.238438)scale(0.1 -0.1)">
       <defs>
        <path d="M 2034 4250 
Q 1547 4250 1301 3770 
Q 1056 3291 1056 2328 
Q 1056 1369 1301 889 
Q 1547 409 2034 409 
Q 2525 409 2770 889 
Q 3016 1369 3016 2328 
Q 3016 3291 2770 3770 
Q 2525 4250 2034 4250 
z
M 2034 4750 
Q 2819 4750 3233 4129 
Q 3647 3509 3647 2328 
Q 3647 1150 3233 529 
Q 2819 -91 2034 -91 
Q 1250 -91 836 529 
Q 422 1150 422 2328 
Q 422 3509 836 4129 
Q 1250 4750 2034 4750 
z
" id="DejaVuSans-30" transform="scale(0.015625)"/>
       </defs>
       <use xlink:href="#DejaVuSans-30"/>
      </g>
     </g>
    </g>
    <g id="xtick_2">
     <g id="line2d_2">
      <g>
       <use style="stroke:#000000;stroke-width:0.8;" x="76.343182" xlink:href="#m7c598d3ae0" y="224.64"/>
      </g>
     </g>
     <g id="text_2">
      <!-- 2 -->
      <g transform="translate(73.161932 239.238438)scale(0.1 -0.1)">
       <defs>
        <path d="M 1228 531 
L 3431 531 
L 3431 0 
L 469 0 
L 469 531 
Q 828 903 1448 1529 
Q 2069 2156 2228 2338 
Q 2531 2678 2651 2914 
Q 2772 3150 2772 3378 
Q 2772 3750 2511 3984 
Q 2250 4219 1831 4219 
Q 1534 4219 1204 4116 
Q 875 4013 500 3803 
L 500 4441 
Q 881 4594 1212 4672 
Q 1544 4750 1819 4750 
Q 2544 4750 2975 4387 
Q 3406 4025 3406 3419 
Q 3406 3131 3298 2873 
Q 3191 2616 2906 2266 
Q 2828 2175 2409 1742 
Q 1991 1309 1228 531 
z
" id="DejaVuSans-32" transform="scale(0.015625)"/>
       </defs>
       <use xlink:href="#DejaVuSans-32"/>
      </g>
     </g>
    </g>
    <g id="xtick_3">
     <g id="line2d_3">
      <g>
       <use style="stroke:#000000;stroke-width:0.8;" x="115.877727" xlink:href="#m7c598d3ae0" y="224.64"/>
      </g>
     </g>
     <g id="text_3">
      <!-- 4 -->
      <g transform="translate(112.696477 239.238438)scale(0.1 -0.1)">
       <defs>
        <path d="M 2419 4116 
L 825 1625 
L 2419 1625 
L 2419 4116 
z
M 2253 4666 
L 3047 4666 
L 3047 1625 
L 3713 1625 
L 3713 1100 
L 3047 1100 
L 3047 0 
L 2419 0 
L 2419 1100 
L 313 1100 
L 313 1709 
L 2253 4666 
z
" id="DejaVuSans-34" transform="scale(0.015625)"/>
       </defs>
       <use xlink:href="#DejaVuSans-34"/>
      </g>
     </g>
    </g>
    <g id="xtick_4">
     <g id="line2d_4">
      <g>
       <use style="stroke:#000000;stroke-width:0.8;" x="155.412273" xlink:href="#m7c598d3ae0" y="224.64"/>
      </g>
     </g>
     <g id="text_4">
      <!-- 6 -->
      <g transform="translate(152.231023 239.238438)scale(0.1 -0.1)">
       <defs>
        <path d="M 2113 2584 
Q 1688 2584 1439 2293 
Q 1191 2003 1191 1497 
Q 1191 994 1439 701 
Q 1688 409 2113 409 
Q 2538 409 2786 701 
Q 3034 994 3034 1497 
Q 3034 2003 2786 2293 
Q 2538 2584 2113 2584 
z
M 3366 4563 
L 3366 3988 
Q 3128 4100 2886 4159 
Q 2644 4219 2406 4219 
Q 1781 4219 1451 3797 
Q 1122 3375 1075 2522 
Q 1259 2794 1537 2939 
Q 1816 3084 2150 3084 
Q 2853 3084 3261 2657 
Q 3669 2231 3669 1497 
Q 3669 778 3244 343 
Q 2819 -91 2113 -91 
Q 1303 -91 875 529 
Q 447 1150 447 2328 
Q 447 3434 972 4092 
Q 1497 4750 2381 4750 
Q 2619 4750 2861 4703 
Q 3103 4656 3366 4563 
z
" id="DejaVuSans-36" transform="scale(0.015625)"/>
       </defs>
       <use xlink:href="#DejaVuSans-36"/>
      </g>
     </g>
    </g>
    <g id="xtick_5">
     <g id="line2d_5">
      <g>
       <use style="stroke:#000000;stroke-width:0.8;" x="194.946818" xlink:href="#m7c598d3ae0" y="224.64"/>
      </g>
     </g>
     <g id="text_5">
      <!-- 8 -->
      <g transform="translate(191.765568 239.238438)scale(0.1 -0.1)">
       <defs>
        <path d="M 2034 2216 
Q 1584 2216 1326 1975 
Q 1069 1734 1069 1313 
Q 1069 891 1326 650 
Q 1584 409 2034 409 
Q 2484 409 2743 651 
Q 3003 894 3003 1313 
Q 3003 1734 2745 1975 
Q 2488 2216 2034 2216 
z
M 1403 2484 
Q 997 2584 770 2862 
Q 544 3141 544 3541 
Q 544 4100 942 4425 
Q 1341 4750 2034 4750 
Q 2731 4750 3128 4425 
Q 3525 4100 3525 3541 
Q 3525 3141 3298 2862 
Q 3072 2584 2669 2484 
Q 3125 2378 3379 2068 
Q 3634 1759 3634 1313 
Q 3634 634 3220 271 
Q 2806 -91 2034 -91 
Q 1263 -91 848 271 
Q 434 634 434 1313 
Q 434 1759 690 2068 
Q 947 2378 1403 2484 
z
M 1172 3481 
Q 1172 3119 1398 2916 
Q 1625 2713 2034 2713 
Q 2441 2713 2670 2916 
Q 2900 3119 2900 3481 
Q 2900 3844 2670 4047 
Q 2441 4250 2034 4250 
Q 1625 4250 1398 4047 
Q 1172 3844 1172 3481 
z
" id="DejaVuSans-38" transform="scale(0.015625)"/>
       </defs>
       <use xlink:href="#DejaVuSans-38"/>
      </g>
     </g>
    </g>
    <g id="xtick_6">
     <g id="line2d_6">
      <g>
       <use style="stroke:#000000;stroke-width:0.8;" x="234.481364" xlink:href="#m7c598d3ae0" y="224.64"/>
      </g>
     </g>
     <g id="text_6">
      <!-- 10 -->
      <g transform="translate(228.118864 239.238438)scale(0.1 -0.1)">
       <defs>
        <path d="M 794 531 
L 1825 531 
L 1825 4091 
L 703 3866 
L 703 4441 
L 1819 4666 
L 2450 4666 
L 2450 531 
L 3481 531 
L 3481 0 
L 794 0 
L 794 531 
z
" id="DejaVuSans-31" transform="scale(0.015625)"/>
       </defs>
       <use xlink:href="#DejaVuSans-31"/>
       <use x="63.623047" xlink:href="#DejaVuSans-30"/>
      </g>
     </g>
    </g>
   </g>
   <g id="matplotlib.axis_2">
    <g id="ytick_1">
     <g id="line2d_7">
      <defs>
       <path d="M 0 0 
L -3.5 0 
" id="mcfd8474c54" style="stroke:#000000;stroke-width:0.8;"/>
      </defs>
      <g>
       <use style="stroke:#000000;stroke-width:0.8;" x="26.925" xlink:href="#mcfd8474c54" y="214.756364"/>
      </g>
     </g>
     <g id="text_7">
      <!-- 0 -->
      <g transform="translate(13.5625 218.555582)scale(0.1 -0.1)">
       <use xlink:href="#DejaVuSans-30"/>
      </g>
     </g>
    </g>
    <g id="ytick_2">
     <g id="line2d_8">
      <g>
       <use style="stroke:#000000;stroke-width:0.8;" x="26.925" xlink:href="#mcfd8474c54" y="175.221818"/>
      </g>
     </g>
     <g id="text_8">
      <!-- 2 -->
      <g transform="translate(13.5625 179.021037)scale(0.1 -0.1)">
       <use xlink:href="#DejaVuSans-32"/>
      </g>
     </g>
    </g>
    <g id="ytick_3">
     <g id="line2d_9">
      <g>
       <use style="stroke:#000000;stroke-width:0.8;" x="26.925" xlink:href="#mcfd8474c54" y="135.687273"/>
      </g>
     </g>
     <g id="text_9">
      <!-- 4 -->
      <g transform="translate(13.5625 139.486491)scale(0.1 -0.1)">
       <use xlink:href="#DejaVuSans-34"/>
      </g>
     </g>
    </g>
    <g id="ytick_4">
     <g id="line2d_10">
      <g>
       <use style="stroke:#000000;stroke-width:0.8;" x="26.925" xlink:href="#mcfd8474c54" y="96.152727"/>
      </g>
     </g>
     <g id="text_10">
      <!-- 6 -->
      <g transform="translate(13.5625 99.951946)scale(0.1 -0.1)">
       <use xlink:href="#DejaVuSans-36"/>
      </g>
     </g>
    </g>
    <g id="ytick_5">
     <g id="line2d_11">
      <g>
       <use style="stroke:#000000;stroke-width:0.8;" x="26.925" xlink:href="#mcfd8474c54" y="56.618182"/>
      </g>
     </g>
     <g id="text_11">
      <!-- 8 -->
      <g transform="translate(13.5625 60.417401)scale(0.1 -0.1)">
       <use xlink:href="#DejaVuSans-38"/>
      </g>
     </g>
    </g>
    <g id="ytick_6">
     <g id="line2d_12">
      <g>
       <use style="stroke:#000000;stroke-width:0.8;" x="26.925" xlink:href="#mcfd8474c54" y="17.083636"/>
      </g>
     </g>
     <g id="text_12">
      <!-- 10 -->
      <g transform="translate(7.2 20.882855)scale(0.1 -0.1)">
       <use xlink:href="#DejaVuSans-31"/>
       <use x="63.623047" xlink:href="#DejaVuSans-30"/>
      </g>
     </g>
    </g>
   </g>
   <g id="LineCollection_1">
    <path clip-path="url(#p3b17f77749)" d="M 36.808636 214.756364 
L 56.575909 214.756364 
" style="fill:none;stroke:#1f77b4;stroke-width:1.5;"/>
    <path clip-path="url(#p3b17f77749)" d="M 36.808636 214.756364 
L 36.808636 194.989091 
" style="fill:none;stroke:#1f77b4;stroke-width:1.5;"/>
    <path clip-path="url(#p3b17f77749)" d="M 56.575909 214.756364 
L 56.575909 194.989091 
" style="fill:none;stroke:#1f77b4;stroke-width:1.5;"/>
    <path clip-path="url(#p3b17f77749)" d="M 56.575909 214.756364 
L 76.343182 214.756364 
" style="fill:none;stroke:#1f77b4;stroke-width:1.5;"/>
    <path clip-path="url(#p3b17f77749)" d="M 36.808636 194.989091 
L 56.575909 194.989091 
" style="fill:none;stroke:#1f77b4;stroke-width:1.5;"/>
    <path clip-path="url(#p3b17f77749)" d="M 36.808636 194.989091 
L 36.808636 175.221818 
" style="fill:none;stroke:#1f77b4;stroke-width:1.5;"/>
    <path clip-path="url(#p3b17f77749)" d="M 56.575909 194.989091 
L 56.575909 175.221818 
" style="fill:none;stroke:#1f77b4;stroke-width:1.5;"/>
    <path clip-path="url(#p3b17f77749)" d="M 56.575909 194.989091 
L 76.343182 194.989091 
" style="fill:none;stroke:#1f77b4;stroke-width:1.5;"/>
    <path clip-path="url(#p3b17f77749)" d="M 36.808636 175.221818 
L 56.575909 175.221818 
" style="fill:none;stroke:#1f77b4;stroke-width:1.5;"/>
    <path clip-path="url(#p3b17f77749)" d="M 36.808636 175.221818 
L 36.808636 155.454545 
" style="fill:none;stroke:#1f77b4;stroke-width:1.5;"/>
    <path clip-path="url(#p3b17f77749)" d="M 56.575909 175.221818 
L 56.575909 155.454545 
" style="fill:none;stroke:#1f77b4;stroke-width:1.5;"/>
    <path clip-path="url(#p3b17f77749)" d="M 56.575909 175.221818 
L 76.343182 175.221818 
" style="fill:none;stroke:#1f77b4;stroke-width:1.5;"/>
    <path clip-path="url(#p3b17f77749)" d="M 36.808636 155.454545 
L 56.575909 155.454545 
" style="fill:none;stroke:#1f77b4;stroke-width:1.5;"/>
    <path clip-path="url(#p3b17f77749)" d="M 36.808636 155.454545 
L 36.808636 135.687273 
" style="fill:none;stroke:#1f77b4;stroke-width:1.5;"/>
    <path clip-path="url(#p3b17f77749)" d="M 56.575909 155.454545 
L 56.575909 135.687273 
" style="fill:none;stroke:#1f77b4;stroke-width:1.5;"/>
    <path clip-path="url(#p3b17f77749)" d="M 56.575909 155.454545 
L 76.343182 155.454545 
" style="fill:none;stroke:#1f77b4;stroke-width:1.5;"/>
    <path clip-path="url(#p3b17f77749)" d="M 36.808636 135.687273 
L 56.575909 135.687273 
" style="fill:none;stroke:#1f77b4;stroke-width:1.5;"/>
    <path clip-path="url(#p3b17f77749)" d="M 36.808636 135.687273 
L 36.808636 115.92 
" style="fill:none;stroke:#1f77b4;stroke-width:1.5;"/>
    <path clip-path="url(#p3b17f77749)" d="M 56.575909 135.687273 
L 56.575909 115.92 
" style="fill:none;stroke:#1f77b4;stroke-width:1.5;"/>
    <path clip-path="url(#p3b17f77749)" d="M 56.575909 135.687273 
L 76.343182 135.687273 
" style="fill:none;stroke:#1f77b4;stroke-width:1.5;"/>
    <path clip-path="url(#p3b17f77749)" d="M 36.808636 115.92 
L 56.575909 115.92 
" style="fill:none;stroke:#1f77b4;stroke-width:1.5;"/>
    <path clip-path="url(#p3b17f77749)" d="M 36.808636 115.92 
L 36.808636 96.152727 
" style="fill:none;stroke:#1f77b4;stroke-width:1.5;"/>
    <path clip-path="url(#p3b17f77749)" d="M 56.575909 115.92 
L 56.575909 96.152727 
" style="fill:none;stroke:#1f77b4;stroke-width:1.5;"/>
    <path clip-path="url(#p3b17f77749)" d="M 56.575909 115.92 
L 76.343182 115.92 
" style="fill:none;stroke:#1f77b4;stroke-width:1.5;"/>
    <path clip-path="url(#p3b17f77749)" d="M 36.808636 96.152727 
L 56.575909 96.152727 
" style="fill:none;stroke:#1f77b4;stroke-width:1.5;"/>
    <path clip-path="url(#p3b17f77749)" d="M 36.808636 96.152727 
L 36.808636 76.385455 
" style="fill:none;stroke:#1f77b4;stroke-width:1.5;"/>
    <path clip-path="url(#p3b17f77749)" d="M 56.575909 96.152727 
L 56.575909 76.385455 
" style="fill:none;stroke:#1f77b4;stroke-width:1.5;"/>
    <path clip-path="url(#p3b17f77749)" d="M 56.575909 96.152727 
L 76.343182 96.152727 
" style="fill:none;stroke:#1f77b4;stroke-width:1.5;"/>
    <path clip-path="url(#p3b17f77749)" d="M 36.808636 76.385455 
L 56.575909 76.385455 
" style="fill:none;stroke:#1f77b4;stroke-width:1.5;"/>
    <path clip-path="url(#p3b17f77749)" d="M 36.808636 76.385455 
L 36.808636 56.618182 
" style="fill:none;stroke:#1f77b4;stroke-width:1.5;"/>
    <path clip-path="url(#p3b17f77749)" d="M 56.575909 76.385455 
L 56.575909 56.618182 
" style="fill:none;stroke:#1f77b4;stroke-width:1.5;"/>
    <path clip-path="url(#p3b17f77749)" d="M 56.575909 76.385455 
L 76.343182 76.385455 
" style="fill:none;stroke:#1f77b4;stroke-width:1.5;"/>
    <path clip-path="url(#p3b17f77749)" d="M 36.808636 56.618182 
L 56.575909 56.618182 
" style="fill:none;stroke:#1f77b4;stroke-width:1.5;"/>
    <path clip-path="url(#p3b17f77749)" d="M 36.808636 56.618182 
L 36.808636 36.850909 
" style="fill:none;stroke:#1f77b4;stroke-width:1.5;"/>
    <path clip-path="url(#p3b17f77749)" d="M 56.575909 56.618182 
L 56.575909 36.850909 
" style="fill:none;stroke:#1f77b4;stroke-width:1.5;"/>
    <path clip-path="url(#p3b17f77749)" d="M 56.575909 56.618182 
L 76.343182 56.618182 
" style="fill:none;stroke:#1f77b4;stroke-width:1.5;"/>
    <path clip-path="url(#p3b17f77749)" d="M 36.808636 36.850909 
L 56.575909 36.850909 
" style="fill:none;stroke:#1f77b4;stroke-width:1.5;"/>
    <path clip-path="url(#p3b17f77749)" d="M 36.808636 36.850909 
L 36.808636 17.083636 
" style="fill:none;stroke:#1f77b4;stroke-width:1.5;"/>
    <path clip-path="url(#p3b17f77749)" d="M 56.575909 36.850909 
L 56.575909 17.083636 
" style="fill:none;stroke:#1f77b4;stroke-width:1.5;"/>
    <path clip-path="url(#p3b17f77749)" d="M 56.575909 36.850909 
L 76.343182 36.850909 
" style="fill:none;stroke:#1f77b4;stroke-width:1.5;"/>
    <path clip-path="url(#p3b17f77749)" d="M 36.808636 17.083636 
L 56.575909 17.083636 
" style="fill:none;stroke:#1f77b4;stroke-width:1.5;"/>
    <path clip-path="url(#p3b17f77749)" d="M 56.575909 17.083636 
L 76.343182 17.083636 
" style="fill:none;stroke:#1f77b4;stroke-width:1.5;"/>
    <path clip-path="url(#p3b17f77749)" d="M 76.343182 214.756364 
L 76.343182 194.989091 
" style="fill:none;stroke:#1f77b4;stroke-width:1.5;"/>
    <path clip-path="url(#p3b17f77749)" d="M 76.343182 214.756364 
L 96.110455 214.756364 
" style="fill:none;stroke:#1f77b4;stroke-width:1.5;"/>
    <path clip-path="url(#p3b17f77749)" d="M 76.343182 194.989091 
L 76.343182 175.221818 
" style="fill:none;stroke:#1f77b4;stroke-width:1.5;"/>
    <path clip-path="url(#p3b17f77749)" d="M 76.343182 194.989091 
L 96.110455 194.989091 
" style="fill:none;stroke:#1f77b4;stroke-width:1.5;"/>
    <path clip-path="url(#p3b17f77749)" d="M 76.343182 175.221818 
L 76.343182 155.454545 
" style="fill:none;stroke:#1f77b4;stroke-width:1.5;"/>
    <path clip-path="url(#p3b17f77749)" d="M 76.343182 175.221818 
L 96.110455 175.221818 
" style="fill:none;stroke:#1f77b4;stroke-width:1.5;"/>
    <path clip-path="url(#p3b17f77749)" d="M 76.343182 155.454545 
L 76.343182 135.687273 
" style="fill:none;stroke:#1f77b4;stroke-width:1.5;"/>
    <path clip-path="url(#p3b17f77749)" d="M 76.343182 155.454545 
L 96.110455 155.454545 
" style="fill:none;stroke:#1f77b4;stroke-width:1.5;"/>
    <path clip-path="url(#p3b17f77749)" d="M 76.343182 135.687273 
L 76.343182 115.92 
" style="fill:none;stroke:#1f77b4;stroke-width:1.5;"/>
    <path clip-path="url(#p3b17f77749)" d="M 76.343182 135.687273 
L 96.110455 135.687273 
" style="fill:none;stroke:#1f77b4;stroke-width:1.5;"/>
    <path clip-path="url(#p3b17f77749)" d="M 76.343182 115.92 
L 76.343182 96.152727 
" style="fill:none;stroke:#1f77b4;stroke-width:1.5;"/>
    <path clip-path="url(#p3b17f77749)" d="M 76.343182 115.92 
L 96.110455 115.92 
" style="fill:none;stroke:#1f77b4;stroke-width:1.5;"/>
    <path clip-path="url(#p3b17f77749)" d="M 76.343182 96.152727 
L 76.343182 76.385455 
" style="fill:none;stroke:#1f77b4;stroke-width:1.5;"/>
    <path clip-path="url(#p3b17f77749)" d="M 76.343182 96.152727 
L 96.110455 96.152727 
" style="fill:none;stroke:#1f77b4;stroke-width:1.5;"/>
    <path clip-path="url(#p3b17f77749)" d="M 76.343182 76.385455 
L 76.343182 56.618182 
" style="fill:none;stroke:#1f77b4;stroke-width:1.5;"/>
    <path clip-path="url(#p3b17f77749)" d="M 76.343182 76.385455 
L 96.110455 76.385455 
" style="fill:none;stroke:#1f77b4;stroke-width:1.5;"/>
    <path clip-path="url(#p3b17f77749)" d="M 76.343182 56.618182 
L 76.343182 36.850909 
" style="fill:none;stroke:#1f77b4;stroke-width:1.5;"/>
    <path clip-path="url(#p3b17f77749)" d="M 76.343182 56.618182 
L 96.110455 56.618182 
" style="fill:none;stroke:#1f77b4;stroke-width:1.5;"/>
    <path clip-path="url(#p3b17f77749)" d="M 76.343182 36.850909 
L 76.343182 17.083636 
" style="fill:none;stroke:#1f77b4;stroke-width:1.5;"/>
    <path clip-path="url(#p3b17f77749)" d="M 76.343182 36.850909 
L 96.110455 36.850909 
" style="fill:none;stroke:#1f77b4;stroke-width:1.5;"/>
    <path clip-path="url(#p3b17f77749)" d="M 76.343182 17.083636 
L 96.110455 17.083636 
" style="fill:none;stroke:#1f77b4;stroke-width:1.5;"/>
    <path clip-path="url(#p3b17f77749)" d="M 96.110455 214.756364 
L 96.110455 194.989091 
" style="fill:none;stroke:#1f77b4;stroke-width:1.5;"/>
    <path clip-path="url(#p3b17f77749)" d="M 96.110455 214.756364 
L 115.877727 214.756364 
" style="fill:none;stroke:#1f77b4;stroke-width:1.5;"/>
    <path clip-path="url(#p3b17f77749)" d="M 96.110455 194.989091 
L 96.110455 175.221818 
" style="fill:none;stroke:#1f77b4;stroke-width:1.5;"/>
    <path clip-path="url(#p3b17f77749)" d="M 96.110455 194.989091 
L 115.877727 194.989091 
" style="fill:none;stroke:#1f77b4;stroke-width:1.5;"/>
    <path clip-path="url(#p3b17f77749)" d="M 96.110455 175.221818 
L 96.110455 155.454545 
" style="fill:none;stroke:#1f77b4;stroke-width:1.5;"/>
    <path clip-path="url(#p3b17f77749)" d="M 96.110455 175.221818 
L 115.877727 175.221818 
" style="fill:none;stroke:#1f77b4;stroke-width:1.5;"/>
    <path clip-path="url(#p3b17f77749)" d="M 96.110455 155.454545 
L 96.110455 135.687273 
" style="fill:none;stroke:#1f77b4;stroke-width:1.5;"/>
    <path clip-path="url(#p3b17f77749)" d="M 96.110455 155.454545 
L 115.877727 155.454545 
" style="fill:none;stroke:#1f77b4;stroke-width:1.5;"/>
    <path clip-path="url(#p3b17f77749)" d="M 96.110455 135.687273 
L 96.110455 115.92 
" style="fill:none;stroke:#1f77b4;stroke-width:1.5;"/>
    <path clip-path="url(#p3b17f77749)" d="M 96.110455 135.687273 
L 115.877727 135.687273 
" style="fill:none;stroke:#1f77b4;stroke-width:1.5;"/>
    <path clip-path="url(#p3b17f77749)" d="M 96.110455 115.92 
L 96.110455 96.152727 
" style="fill:none;stroke:#1f77b4;stroke-width:1.5;"/>
    <path clip-path="url(#p3b17f77749)" d="M 96.110455 115.92 
L 115.877727 115.92 
" style="fill:none;stroke:#1f77b4;stroke-width:1.5;"/>
    <path clip-path="url(#p3b17f77749)" d="M 96.110455 96.152727 
L 96.110455 76.385455 
" style="fill:none;stroke:#1f77b4;stroke-width:1.5;"/>
    <path clip-path="url(#p3b17f77749)" d="M 96.110455 96.152727 
L 115.877727 96.152727 
" style="fill:none;stroke:#1f77b4;stroke-width:1.5;"/>
    <path clip-path="url(#p3b17f77749)" d="M 96.110455 76.385455 
L 96.110455 56.618182 
" style="fill:none;stroke:#1f77b4;stroke-width:1.5;"/>
    <path clip-path="url(#p3b17f77749)" d="M 96.110455 76.385455 
L 115.877727 76.385455 
" style="fill:none;stroke:#1f77b4;stroke-width:1.5;"/>
    <path clip-path="url(#p3b17f77749)" d="M 96.110455 56.618182 
L 96.110455 36.850909 
" style="fill:none;stroke:#1f77b4;stroke-width:1.5;"/>
    <path clip-path="url(#p3b17f77749)" d="M 96.110455 56.618182 
L 115.877727 56.618182 
" style="fill:none;stroke:#1f77b4;stroke-width:1.5;"/>
    <path clip-path="url(#p3b17f77749)" d="M 96.110455 36.850909 
L 96.110455 17.083636 
" style="fill:none;stroke:#1f77b4;stroke-width:1.5;"/>
    <path clip-path="url(#p3b17f77749)" d="M 96.110455 36.850909 
L 115.877727 36.850909 
" style="fill:none;stroke:#1f77b4;stroke-width:1.5;"/>
    <path clip-path="url(#p3b17f77749)" d="M 96.110455 17.083636 
L 115.877727 17.083636 
" style="fill:none;stroke:#1f77b4;stroke-width:1.5;"/>
    <path clip-path="url(#p3b17f77749)" d="M 115.877727 214.756364 
L 115.877727 194.989091 
" style="fill:none;stroke:#1f77b4;stroke-width:1.5;"/>
    <path clip-path="url(#p3b17f77749)" d="M 115.877727 214.756364 
L 135.645 214.756364 
" style="fill:none;stroke:#1f77b4;stroke-width:1.5;"/>
    <path clip-path="url(#p3b17f77749)" d="M 115.877727 194.989091 
L 115.877727 175.221818 
" style="fill:none;stroke:#1f77b4;stroke-width:1.5;"/>
    <path clip-path="url(#p3b17f77749)" d="M 115.877727 194.989091 
L 135.645 194.989091 
" style="fill:none;stroke:#1f77b4;stroke-width:1.5;"/>
    <path clip-path="url(#p3b17f77749)" d="M 115.877727 175.221818 
L 115.877727 155.454545 
" style="fill:none;stroke:#1f77b4;stroke-width:1.5;"/>
    <path clip-path="url(#p3b17f77749)" d="M 115.877727 175.221818 
L 135.645 175.221818 
" style="fill:none;stroke:#1f77b4;stroke-width:1.5;"/>
    <path clip-path="url(#p3b17f77749)" d="M 115.877727 155.454545 
L 115.877727 135.687273 
" style="fill:none;stroke:#1f77b4;stroke-width:1.5;"/>
    <path clip-path="url(#p3b17f77749)" d="M 115.877727 155.454545 
L 135.645 155.454545 
" style="fill:none;stroke:#1f77b4;stroke-width:1.5;"/>
    <path clip-path="url(#p3b17f77749)" d="M 115.877727 135.687273 
L 115.877727 115.92 
" style="fill:none;stroke:#1f77b4;stroke-width:1.5;"/>
    <path clip-path="url(#p3b17f77749)" d="M 115.877727 135.687273 
L 135.645 135.687273 
" style="fill:none;stroke:#1f77b4;stroke-width:1.5;"/>
    <path clip-path="url(#p3b17f77749)" d="M 115.877727 115.92 
L 115.877727 96.152727 
" style="fill:none;stroke:#1f77b4;stroke-width:1.5;"/>
    <path clip-path="url(#p3b17f77749)" d="M 115.877727 115.92 
L 135.645 115.92 
" style="fill:none;stroke:#1f77b4;stroke-width:1.5;"/>
    <path clip-path="url(#p3b17f77749)" d="M 115.877727 96.152727 
L 115.877727 76.385455 
" style="fill:none;stroke:#1f77b4;stroke-width:1.5;"/>
    <path clip-path="url(#p3b17f77749)" d="M 115.877727 96.152727 
L 135.645 96.152727 
" style="fill:none;stroke:#1f77b4;stroke-width:1.5;"/>
    <path clip-path="url(#p3b17f77749)" d="M 115.877727 76.385455 
L 115.877727 56.618182 
" style="fill:none;stroke:#1f77b4;stroke-width:1.5;"/>
    <path clip-path="url(#p3b17f77749)" d="M 115.877727 76.385455 
L 135.645 76.385455 
" style="fill:none;stroke:#1f77b4;stroke-width:1.5;"/>
    <path clip-path="url(#p3b17f77749)" d="M 115.877727 56.618182 
L 115.877727 36.850909 
" style="fill:none;stroke:#1f77b4;stroke-width:1.5;"/>
    <path clip-path="url(#p3b17f77749)" d="M 115.877727 56.618182 
L 135.645 56.618182 
" style="fill:none;stroke:#1f77b4;stroke-width:1.5;"/>
    <path clip-path="url(#p3b17f77749)" d="M 115.877727 36.850909 
L 115.877727 17.083636 
" style="fill:none;stroke:#1f77b4;stroke-width:1.5;"/>
    <path clip-path="url(#p3b17f77749)" d="M 115.877727 36.850909 
L 135.645 36.850909 
" style="fill:none;stroke:#1f77b4;stroke-width:1.5;"/>
    <path clip-path="url(#p3b17f77749)" d="M 115.877727 17.083636 
L 135.645 17.083636 
" style="fill:none;stroke:#1f77b4;stroke-width:1.5;"/>
    <path clip-path="url(#p3b17f77749)" d="M 135.645 214.756364 
L 135.645 194.989091 
" style="fill:none;stroke:#1f77b4;stroke-width:1.5;"/>
    <path clip-path="url(#p3b17f77749)" d="M 135.645 214.756364 
L 155.412273 214.756364 
" style="fill:none;stroke:#1f77b4;stroke-width:1.5;"/>
    <path clip-path="url(#p3b17f77749)" d="M 135.645 194.989091 
L 135.645 175.221818 
" style="fill:none;stroke:#1f77b4;stroke-width:1.5;"/>
    <path clip-path="url(#p3b17f77749)" d="M 135.645 194.989091 
L 155.412273 194.989091 
" style="fill:none;stroke:#1f77b4;stroke-width:1.5;"/>
    <path clip-path="url(#p3b17f77749)" d="M 135.645 175.221818 
L 135.645 155.454545 
" style="fill:none;stroke:#1f77b4;stroke-width:1.5;"/>
    <path clip-path="url(#p3b17f77749)" d="M 135.645 175.221818 
L 155.412273 175.221818 
" style="fill:none;stroke:#1f77b4;stroke-width:1.5;"/>
    <path clip-path="url(#p3b17f77749)" d="M 135.645 155.454545 
L 135.645 135.687273 
" style="fill:none;stroke:#1f77b4;stroke-width:1.5;"/>
    <path clip-path="url(#p3b17f77749)" d="M 135.645 155.454545 
L 155.412273 155.454545 
" style="fill:none;stroke:#1f77b4;stroke-width:1.5;"/>
    <path clip-path="url(#p3b17f77749)" d="M 135.645 135.687273 
L 135.645 115.92 
" style="fill:none;stroke:#1f77b4;stroke-width:1.5;"/>
    <path clip-path="url(#p3b17f77749)" d="M 135.645 135.687273 
L 155.412273 135.687273 
" style="fill:none;stroke:#1f77b4;stroke-width:1.5;"/>
    <path clip-path="url(#p3b17f77749)" d="M 135.645 115.92 
L 135.645 96.152727 
" style="fill:none;stroke:#1f77b4;stroke-width:1.5;"/>
    <path clip-path="url(#p3b17f77749)" d="M 135.645 115.92 
L 155.412273 115.92 
" style="fill:none;stroke:#1f77b4;stroke-width:1.5;"/>
    <path clip-path="url(#p3b17f77749)" d="M 135.645 96.152727 
L 135.645 76.385455 
" style="fill:none;stroke:#1f77b4;stroke-width:1.5;"/>
    <path clip-path="url(#p3b17f77749)" d="M 135.645 96.152727 
L 155.412273 96.152727 
" style="fill:none;stroke:#1f77b4;stroke-width:1.5;"/>
    <path clip-path="url(#p3b17f77749)" d="M 135.645 76.385455 
L 135.645 56.618182 
" style="fill:none;stroke:#1f77b4;stroke-width:1.5;"/>
    <path clip-path="url(#p3b17f77749)" d="M 135.645 76.385455 
L 155.412273 76.385455 
" style="fill:none;stroke:#1f77b4;stroke-width:1.5;"/>
    <path clip-path="url(#p3b17f77749)" d="M 135.645 56.618182 
L 135.645 36.850909 
" style="fill:none;stroke:#1f77b4;stroke-width:1.5;"/>
    <path clip-path="url(#p3b17f77749)" d="M 135.645 56.618182 
L 155.412273 56.618182 
" style="fill:none;stroke:#1f77b4;stroke-width:1.5;"/>
    <path clip-path="url(#p3b17f77749)" d="M 135.645 36.850909 
L 135.645 17.083636 
" style="fill:none;stroke:#1f77b4;stroke-width:1.5;"/>
    <path clip-path="url(#p3b17f77749)" d="M 135.645 36.850909 
L 155.412273 36.850909 
" style="fill:none;stroke:#1f77b4;stroke-width:1.5;"/>
    <path clip-path="url(#p3b17f77749)" d="M 135.645 17.083636 
L 155.412273 17.083636 
" style="fill:none;stroke:#1f77b4;stroke-width:1.5;"/>
    <path clip-path="url(#p3b17f77749)" d="M 155.412273 214.756364 
L 155.412273 194.989091 
" style="fill:none;stroke:#1f77b4;stroke-width:1.5;"/>
    <path clip-path="url(#p3b17f77749)" d="M 155.412273 214.756364 
L 175.179545 214.756364 
" style="fill:none;stroke:#1f77b4;stroke-width:1.5;"/>
    <path clip-path="url(#p3b17f77749)" d="M 155.412273 194.989091 
L 155.412273 175.221818 
" style="fill:none;stroke:#1f77b4;stroke-width:1.5;"/>
    <path clip-path="url(#p3b17f77749)" d="M 155.412273 194.989091 
L 175.179545 194.989091 
" style="fill:none;stroke:#1f77b4;stroke-width:1.5;"/>
    <path clip-path="url(#p3b17f77749)" d="M 155.412273 175.221818 
L 155.412273 155.454545 
" style="fill:none;stroke:#1f77b4;stroke-width:1.5;"/>
    <path clip-path="url(#p3b17f77749)" d="M 155.412273 175.221818 
L 175.179545 175.221818 
" style="fill:none;stroke:#1f77b4;stroke-width:1.5;"/>
    <path clip-path="url(#p3b17f77749)" d="M 155.412273 155.454545 
L 155.412273 135.687273 
" style="fill:none;stroke:#1f77b4;stroke-width:1.5;"/>
    <path clip-path="url(#p3b17f77749)" d="M 155.412273 155.454545 
L 175.179545 155.454545 
" style="fill:none;stroke:#1f77b4;stroke-width:1.5;"/>
    <path clip-path="url(#p3b17f77749)" d="M 155.412273 135.687273 
L 155.412273 115.92 
" style="fill:none;stroke:#1f77b4;stroke-width:1.5;"/>
    <path clip-path="url(#p3b17f77749)" d="M 155.412273 135.687273 
L 175.179545 135.687273 
" style="fill:none;stroke:#1f77b4;stroke-width:1.5;"/>
    <path clip-path="url(#p3b17f77749)" d="M 155.412273 115.92 
L 155.412273 96.152727 
" style="fill:none;stroke:#1f77b4;stroke-width:1.5;"/>
    <path clip-path="url(#p3b17f77749)" d="M 155.412273 115.92 
L 175.179545 115.92 
" style="fill:none;stroke:#1f77b4;stroke-width:1.5;"/>
    <path clip-path="url(#p3b17f77749)" d="M 155.412273 96.152727 
L 155.412273 76.385455 
" style="fill:none;stroke:#1f77b4;stroke-width:1.5;"/>
    <path clip-path="url(#p3b17f77749)" d="M 155.412273 96.152727 
L 175.179545 96.152727 
" style="fill:none;stroke:#1f77b4;stroke-width:1.5;"/>
    <path clip-path="url(#p3b17f77749)" d="M 155.412273 76.385455 
L 155.412273 56.618182 
" style="fill:none;stroke:#1f77b4;stroke-width:1.5;"/>
    <path clip-path="url(#p3b17f77749)" d="M 155.412273 76.385455 
L 175.179545 76.385455 
" style="fill:none;stroke:#1f77b4;stroke-width:1.5;"/>
    <path clip-path="url(#p3b17f77749)" d="M 155.412273 56.618182 
L 155.412273 36.850909 
" style="fill:none;stroke:#1f77b4;stroke-width:1.5;"/>
    <path clip-path="url(#p3b17f77749)" d="M 155.412273 56.618182 
L 175.179545 56.618182 
" style="fill:none;stroke:#1f77b4;stroke-width:1.5;"/>
    <path clip-path="url(#p3b17f77749)" d="M 155.412273 36.850909 
L 155.412273 17.083636 
" style="fill:none;stroke:#1f77b4;stroke-width:1.5;"/>
    <path clip-path="url(#p3b17f77749)" d="M 155.412273 36.850909 
L 175.179545 36.850909 
" style="fill:none;stroke:#1f77b4;stroke-width:1.5;"/>
    <path clip-path="url(#p3b17f77749)" d="M 155.412273 17.083636 
L 175.179545 17.083636 
" style="fill:none;stroke:#1f77b4;stroke-width:1.5;"/>
    <path clip-path="url(#p3b17f77749)" d="M 175.179545 214.756364 
L 175.179545 194.989091 
" style="fill:none;stroke:#1f77b4;stroke-width:1.5;"/>
    <path clip-path="url(#p3b17f77749)" d="M 175.179545 214.756364 
L 194.946818 214.756364 
" style="fill:none;stroke:#1f77b4;stroke-width:1.5;"/>
    <path clip-path="url(#p3b17f77749)" d="M 175.179545 194.989091 
L 175.179545 175.221818 
" style="fill:none;stroke:#1f77b4;stroke-width:1.5;"/>
    <path clip-path="url(#p3b17f77749)" d="M 175.179545 194.989091 
L 194.946818 194.989091 
" style="fill:none;stroke:#1f77b4;stroke-width:1.5;"/>
    <path clip-path="url(#p3b17f77749)" d="M 175.179545 175.221818 
L 175.179545 155.454545 
" style="fill:none;stroke:#1f77b4;stroke-width:1.5;"/>
    <path clip-path="url(#p3b17f77749)" d="M 175.179545 175.221818 
L 194.946818 175.221818 
" style="fill:none;stroke:#1f77b4;stroke-width:1.5;"/>
    <path clip-path="url(#p3b17f77749)" d="M 175.179545 155.454545 
L 175.179545 135.687273 
" style="fill:none;stroke:#1f77b4;stroke-width:1.5;"/>
    <path clip-path="url(#p3b17f77749)" d="M 175.179545 155.454545 
L 194.946818 155.454545 
" style="fill:none;stroke:#1f77b4;stroke-width:1.5;"/>
    <path clip-path="url(#p3b17f77749)" d="M 175.179545 135.687273 
L 175.179545 115.92 
" style="fill:none;stroke:#1f77b4;stroke-width:1.5;"/>
    <path clip-path="url(#p3b17f77749)" d="M 175.179545 135.687273 
L 194.946818 135.687273 
" style="fill:none;stroke:#1f77b4;stroke-width:1.5;"/>
    <path clip-path="url(#p3b17f77749)" d="M 175.179545 115.92 
L 175.179545 96.152727 
" style="fill:none;stroke:#1f77b4;stroke-width:1.5;"/>
    <path clip-path="url(#p3b17f77749)" d="M 175.179545 115.92 
L 194.946818 115.92 
" style="fill:none;stroke:#1f77b4;stroke-width:1.5;"/>
    <path clip-path="url(#p3b17f77749)" d="M 175.179545 96.152727 
L 175.179545 76.385455 
" style="fill:none;stroke:#1f77b4;stroke-width:1.5;"/>
    <path clip-path="url(#p3b17f77749)" d="M 175.179545 96.152727 
L 194.946818 96.152727 
" style="fill:none;stroke:#1f77b4;stroke-width:1.5;"/>
    <path clip-path="url(#p3b17f77749)" d="M 175.179545 76.385455 
L 175.179545 56.618182 
" style="fill:none;stroke:#1f77b4;stroke-width:1.5;"/>
    <path clip-path="url(#p3b17f77749)" d="M 175.179545 76.385455 
L 194.946818 76.385455 
" style="fill:none;stroke:#1f77b4;stroke-width:1.5;"/>
    <path clip-path="url(#p3b17f77749)" d="M 175.179545 56.618182 
L 175.179545 36.850909 
" style="fill:none;stroke:#1f77b4;stroke-width:1.5;"/>
    <path clip-path="url(#p3b17f77749)" d="M 175.179545 56.618182 
L 194.946818 56.618182 
" style="fill:none;stroke:#1f77b4;stroke-width:1.5;"/>
    <path clip-path="url(#p3b17f77749)" d="M 175.179545 36.850909 
L 175.179545 17.083636 
" style="fill:none;stroke:#1f77b4;stroke-width:1.5;"/>
    <path clip-path="url(#p3b17f77749)" d="M 175.179545 36.850909 
L 194.946818 36.850909 
" style="fill:none;stroke:#1f77b4;stroke-width:1.5;"/>
    <path clip-path="url(#p3b17f77749)" d="M 175.179545 17.083636 
L 194.946818 17.083636 
" style="fill:none;stroke:#1f77b4;stroke-width:1.5;"/>
    <path clip-path="url(#p3b17f77749)" d="M 194.946818 214.756364 
L 194.946818 194.989091 
" style="fill:none;stroke:#1f77b4;stroke-width:1.5;"/>
    <path clip-path="url(#p3b17f77749)" d="M 194.946818 214.756364 
L 214.714091 214.756364 
" style="fill:none;stroke:#1f77b4;stroke-width:1.5;"/>
    <path clip-path="url(#p3b17f77749)" d="M 194.946818 194.989091 
L 194.946818 175.221818 
" style="fill:none;stroke:#1f77b4;stroke-width:1.5;"/>
    <path clip-path="url(#p3b17f77749)" d="M 194.946818 194.989091 
L 214.714091 194.989091 
" style="fill:none;stroke:#1f77b4;stroke-width:1.5;"/>
    <path clip-path="url(#p3b17f77749)" d="M 194.946818 175.221818 
L 194.946818 155.454545 
" style="fill:none;stroke:#1f77b4;stroke-width:1.5;"/>
    <path clip-path="url(#p3b17f77749)" d="M 194.946818 175.221818 
L 214.714091 175.221818 
" style="fill:none;stroke:#1f77b4;stroke-width:1.5;"/>
    <path clip-path="url(#p3b17f77749)" d="M 194.946818 155.454545 
L 194.946818 135.687273 
" style="fill:none;stroke:#1f77b4;stroke-width:1.5;"/>
    <path clip-path="url(#p3b17f77749)" d="M 194.946818 155.454545 
L 214.714091 155.454545 
" style="fill:none;stroke:#1f77b4;stroke-width:1.5;"/>
    <path clip-path="url(#p3b17f77749)" d="M 194.946818 135.687273 
L 194.946818 115.92 
" style="fill:none;stroke:#1f77b4;stroke-width:1.5;"/>
    <path clip-path="url(#p3b17f77749)" d="M 194.946818 135.687273 
L 214.714091 135.687273 
" style="fill:none;stroke:#1f77b4;stroke-width:1.5;"/>
    <path clip-path="url(#p3b17f77749)" d="M 194.946818 115.92 
L 194.946818 96.152727 
" style="fill:none;stroke:#1f77b4;stroke-width:1.5;"/>
    <path clip-path="url(#p3b17f77749)" d="M 194.946818 115.92 
L 214.714091 115.92 
" style="fill:none;stroke:#1f77b4;stroke-width:1.5;"/>
    <path clip-path="url(#p3b17f77749)" d="M 194.946818 96.152727 
L 194.946818 76.385455 
" style="fill:none;stroke:#1f77b4;stroke-width:1.5;"/>
    <path clip-path="url(#p3b17f77749)" d="M 194.946818 96.152727 
L 214.714091 96.152727 
" style="fill:none;stroke:#1f77b4;stroke-width:1.5;"/>
    <path clip-path="url(#p3b17f77749)" d="M 194.946818 76.385455 
L 194.946818 56.618182 
" style="fill:none;stroke:#1f77b4;stroke-width:1.5;"/>
    <path clip-path="url(#p3b17f77749)" d="M 194.946818 76.385455 
L 214.714091 76.385455 
" style="fill:none;stroke:#1f77b4;stroke-width:1.5;"/>
    <path clip-path="url(#p3b17f77749)" d="M 194.946818 56.618182 
L 194.946818 36.850909 
" style="fill:none;stroke:#1f77b4;stroke-width:1.5;"/>
    <path clip-path="url(#p3b17f77749)" d="M 194.946818 56.618182 
L 214.714091 56.618182 
" style="fill:none;stroke:#1f77b4;stroke-width:1.5;"/>
    <path clip-path="url(#p3b17f77749)" d="M 194.946818 36.850909 
L 194.946818 17.083636 
" style="fill:none;stroke:#1f77b4;stroke-width:1.5;"/>
    <path clip-path="url(#p3b17f77749)" d="M 194.946818 36.850909 
L 214.714091 36.850909 
" style="fill:none;stroke:#1f77b4;stroke-width:1.5;"/>
    <path clip-path="url(#p3b17f77749)" d="M 194.946818 17.083636 
L 214.714091 17.083636 
" style="fill:none;stroke:#1f77b4;stroke-width:1.5;"/>
    <path clip-path="url(#p3b17f77749)" d="M 214.714091 214.756364 
L 214.714091 194.989091 
" style="fill:none;stroke:#1f77b4;stroke-width:1.5;"/>
    <path clip-path="url(#p3b17f77749)" d="M 214.714091 214.756364 
L 234.481364 214.756364 
" style="fill:none;stroke:#1f77b4;stroke-width:1.5;"/>
    <path clip-path="url(#p3b17f77749)" d="M 214.714091 194.989091 
L 214.714091 175.221818 
" style="fill:none;stroke:#1f77b4;stroke-width:1.5;"/>
    <path clip-path="url(#p3b17f77749)" d="M 214.714091 194.989091 
L 234.481364 194.989091 
" style="fill:none;stroke:#1f77b4;stroke-width:1.5;"/>
    <path clip-path="url(#p3b17f77749)" d="M 214.714091 175.221818 
L 214.714091 155.454545 
" style="fill:none;stroke:#1f77b4;stroke-width:1.5;"/>
    <path clip-path="url(#p3b17f77749)" d="M 214.714091 175.221818 
L 234.481364 175.221818 
" style="fill:none;stroke:#1f77b4;stroke-width:1.5;"/>
    <path clip-path="url(#p3b17f77749)" d="M 214.714091 155.454545 
L 214.714091 135.687273 
" style="fill:none;stroke:#1f77b4;stroke-width:1.5;"/>
    <path clip-path="url(#p3b17f77749)" d="M 214.714091 155.454545 
L 234.481364 155.454545 
" style="fill:none;stroke:#1f77b4;stroke-width:1.5;"/>
    <path clip-path="url(#p3b17f77749)" d="M 214.714091 135.687273 
L 214.714091 115.92 
" style="fill:none;stroke:#1f77b4;stroke-width:1.5;"/>
    <path clip-path="url(#p3b17f77749)" d="M 214.714091 135.687273 
L 234.481364 135.687273 
" style="fill:none;stroke:#1f77b4;stroke-width:1.5;"/>
    <path clip-path="url(#p3b17f77749)" d="M 214.714091 115.92 
L 214.714091 96.152727 
" style="fill:none;stroke:#1f77b4;stroke-width:1.5;"/>
    <path clip-path="url(#p3b17f77749)" d="M 214.714091 115.92 
L 234.481364 115.92 
" style="fill:none;stroke:#1f77b4;stroke-width:1.5;"/>
    <path clip-path="url(#p3b17f77749)" d="M 214.714091 96.152727 
L 214.714091 76.385455 
" style="fill:none;stroke:#1f77b4;stroke-width:1.5;"/>
    <path clip-path="url(#p3b17f77749)" d="M 214.714091 96.152727 
L 234.481364 96.152727 
" style="fill:none;stroke:#1f77b4;stroke-width:1.5;"/>
    <path clip-path="url(#p3b17f77749)" d="M 214.714091 76.385455 
L 214.714091 56.618182 
" style="fill:none;stroke:#1f77b4;stroke-width:1.5;"/>
    <path clip-path="url(#p3b17f77749)" d="M 214.714091 76.385455 
L 234.481364 76.385455 
" style="fill:none;stroke:#1f77b4;stroke-width:1.5;"/>
    <path clip-path="url(#p3b17f77749)" d="M 214.714091 56.618182 
L 214.714091 36.850909 
" style="fill:none;stroke:#1f77b4;stroke-width:1.5;"/>
    <path clip-path="url(#p3b17f77749)" d="M 214.714091 56.618182 
L 234.481364 56.618182 
" style="fill:none;stroke:#1f77b4;stroke-width:1.5;"/>
    <path clip-path="url(#p3b17f77749)" d="M 214.714091 36.850909 
L 214.714091 17.083636 
" style="fill:none;stroke:#1f77b4;stroke-width:1.5;"/>
    <path clip-path="url(#p3b17f77749)" d="M 214.714091 36.850909 
L 234.481364 36.850909 
" style="fill:none;stroke:#1f77b4;stroke-width:1.5;"/>
    <path clip-path="url(#p3b17f77749)" d="M 214.714091 17.083636 
L 234.481364 17.083636 
" style="fill:none;stroke:#1f77b4;stroke-width:1.5;"/>
    <path clip-path="url(#p3b17f77749)" d="M 234.481364 214.756364 
L 234.481364 194.989091 
" style="fill:none;stroke:#1f77b4;stroke-width:1.5;"/>
    <path clip-path="url(#p3b17f77749)" d="M 234.481364 194.989091 
L 234.481364 175.221818 
" style="fill:none;stroke:#1f77b4;stroke-width:1.5;"/>
    <path clip-path="url(#p3b17f77749)" d="M 234.481364 175.221818 
L 234.481364 155.454545 
" style="fill:none;stroke:#1f77b4;stroke-width:1.5;"/>
    <path clip-path="url(#p3b17f77749)" d="M 234.481364 155.454545 
L 234.481364 135.687273 
" style="fill:none;stroke:#1f77b4;stroke-width:1.5;"/>
    <path clip-path="url(#p3b17f77749)" d="M 234.481364 135.687273 
L 234.481364 115.92 
" style="fill:none;stroke:#1f77b4;stroke-width:1.5;"/>
    <path clip-path="url(#p3b17f77749)" d="M 234.481364 115.92 
L 234.481364 96.152727 
" style="fill:none;stroke:#1f77b4;stroke-width:1.5;"/>
    <path clip-path="url(#p3b17f77749)" d="M 234.481364 96.152727 
L 234.481364 76.385455 
" style="fill:none;stroke:#1f77b4;stroke-width:1.5;"/>
    <path clip-path="url(#p3b17f77749)" d="M 234.481364 76.385455 
L 234.481364 56.618182 
" style="fill:none;stroke:#1f77b4;stroke-width:1.5;"/>
    <path clip-path="url(#p3b17f77749)" d="M 234.481364 56.618182 
L 234.481364 36.850909 
" style="fill:none;stroke:#1f77b4;stroke-width:1.5;"/>
    <path clip-path="url(#p3b17f77749)" d="M 234.481364 36.850909 
L 234.481364 17.083636 
" style="fill:none;stroke:#1f77b4;stroke-width:1.5;"/>
   </g>
   <g id="patch_3">
    <path d="M 26.925 224.64 
L 26.925 7.2 
" style="fill:none;stroke:#000000;stroke-linecap:square;stroke-linejoin:miter;stroke-width:0.8;"/>
   </g>
   <g id="patch_4">
    <path d="M 244.365 224.64 
L 244.365 7.2 
" style="fill:none;stroke:#000000;stroke-linecap:square;stroke-linejoin:miter;stroke-width:0.8;"/>
   </g>
   <g id="patch_5">
    <path d="M 26.925 224.64 
L 244.365 224.64 
" style="fill:none;stroke:#000000;stroke-linecap:square;stroke-linejoin:miter;stroke-width:0.8;"/>
   </g>
   <g id="patch_6">
    <path d="M 26.925 7.2 
L 244.365 7.2 
" style="fill:none;stroke:#000000;stroke-linecap:square;stroke-linejoin:miter;stroke-width:0.8;"/>
   </g>
  </g>
 </g>
 <defs>
  <clipPath id="p3b17f77749">
   <rect height="217.44" width="217.44" x="26.925" y="7.2"/>
  </clipPath>
 </defs>
</svg>
